<mxfile host="65bd71144e">
    <diagram id="Mo4KpfX4V7mYE2bbF0-E" name="Страница 1">
        <mxGraphModel dx="733" dy="697" grid="1" gridSize="10" guides="1" tooltips="1" connect="1" arrows="1" fold="1" page="1" pageScale="1" pageWidth="827" pageHeight="1169" math="0" shadow="0">
            <root>
                <mxCell id="0"/>
                <mxCell id="1" parent="0"/>
                <mxCell id="4" value="" style="edgeStyle=none;html=1;" edge="1" parent="1" source="2" target="5">
                    <mxGeometry relative="1" as="geometry">
                        <mxPoint x="414" y="130" as="targetPoint"/>
                    </mxGeometry>
                </mxCell>
                <mxCell id="2" value="Начало" style="ellipse;whiteSpace=wrap;html=1;" vertex="1" parent="1">
                    <mxGeometry x="339" y="20" width="150" height="40" as="geometry"/>
                </mxCell>
                <mxCell id="7" value="" style="edgeStyle=none;html=1;" edge="1" parent="1" source="5" target="6">
                    <mxGeometry relative="1" as="geometry"/>
                </mxCell>
                <mxCell id="5" value="Инициализация нового массива&lt;br&gt;inputArray" style="rounded=0;whiteSpace=wrap;html=1;" vertex="1" parent="1">
                    <mxGeometry x="354" y="100" width="120" height="50" as="geometry"/>
                </mxCell>
                <mxCell id="11" value="" style="edgeStyle=none;html=1;fontFamily=Times New Roman;fontColor=#FFFFFF;" edge="1" parent="1" source="6" target="10">
                    <mxGeometry relative="1" as="geometry"/>
                </mxCell>
                <mxCell id="6" value="добавлен счетчик&lt;br&gt;нужных эл. массива&lt;br&gt;elemCount" style="rounded=0;whiteSpace=wrap;html=1;" vertex="1" parent="1">
                    <mxGeometry x="354" y="170" width="120" height="50" as="geometry"/>
                </mxCell>
                <mxCell id="13" value="" style="edgeStyle=none;html=1;fontFamily=Times New Roman;fontColor=#FFFFFF;" edge="1" parent="1" source="10" target="12">
                    <mxGeometry relative="1" as="geometry"/>
                </mxCell>
                <mxCell id="20" style="edgeStyle=none;html=1;entryX=0;entryY=0.5;entryDx=0;entryDy=0;fontFamily=Times New Roman;fontColor=#FFFFFF;" edge="1" parent="1" source="10" target="19">
                    <mxGeometry relative="1" as="geometry">
                        <Array as="points">
                            <mxPoint x="240" y="280"/>
                            <mxPoint x="240" y="550"/>
                        </Array>
                    </mxGeometry>
                </mxCell>
                <mxCell id="10" value="цикл &lt;br&gt;for&lt;br&gt;(int i = 0; i &amp;lt; inputArray; i++)" style="shape=hexagon;perimeter=hexagonPerimeter2;whiteSpace=wrap;html=1;fixedSize=1;rounded=0;" vertex="1" parent="1">
                    <mxGeometry x="330" y="250" width="170" height="60" as="geometry"/>
                </mxCell>
                <mxCell id="15" value="" style="edgeStyle=none;html=1;fontFamily=Times New Roman;fontColor=#FFFFFF;" edge="1" parent="1" source="12" target="14">
                    <mxGeometry relative="1" as="geometry">
                        <Array as="points"/>
                    </mxGeometry>
                </mxCell>
                <mxCell id="16" value="yes" style="edgeLabel;html=1;align=center;verticalAlign=middle;resizable=0;points=[];fontFamily=Times New Roman;fontColor=#FFFFFF;" vertex="1" connectable="0" parent="15">
                    <mxGeometry x="-0.3035" y="-1" relative="1" as="geometry">
                        <mxPoint as="offset"/>
                    </mxGeometry>
                </mxCell>
                <mxCell id="17" style="edgeStyle=none;html=1;entryX=1;entryY=0.5;entryDx=0;entryDy=0;fontFamily=Times New Roman;fontColor=#FFFFFF;" edge="1" parent="1" source="12" target="10">
                    <mxGeometry relative="1" as="geometry">
                        <Array as="points">
                            <mxPoint x="540" y="375"/>
                            <mxPoint x="540" y="280"/>
                        </Array>
                    </mxGeometry>
                </mxCell>
                <mxCell id="18" value="no" style="edgeLabel;html=1;align=center;verticalAlign=middle;resizable=0;points=[];fontFamily=Times New Roman;fontColor=#FFFFFF;" vertex="1" connectable="0" parent="17">
                    <mxGeometry x="-0.1223" y="1" relative="1" as="geometry">
                        <mxPoint as="offset"/>
                    </mxGeometry>
                </mxCell>
                <mxCell id="12" value="if(inputArray[i].Length &amp;lt;=3" style="rhombus;whiteSpace=wrap;html=1;rounded=0;" vertex="1" parent="1">
                    <mxGeometry x="338.5" y="340" width="155.5" height="70" as="geometry"/>
                </mxCell>
                <mxCell id="14" value="elemCount++" style="whiteSpace=wrap;html=1;rounded=0;" vertex="1" parent="1">
                    <mxGeometry x="356.25" y="440" width="120" height="60" as="geometry"/>
                </mxCell>
                <mxCell id="22" value="" style="edgeStyle=none;html=1;fontFamily=Times New Roman;fontColor=#FFFFFF;" edge="1" parent="1" source="19" target="21">
                    <mxGeometry relative="1" as="geometry"/>
                </mxCell>
                <mxCell id="19" value="иниц. мас. outArr&lt;br&gt;index = 0" style="rounded=0;whiteSpace=wrap;html=1;fontFamily=Times New Roman;fontColor=#FFFFFF;" vertex="1" parent="1">
                    <mxGeometry x="360" y="520" width="120" height="60" as="geometry"/>
                </mxCell>
                <mxCell id="24" value="" style="edgeStyle=none;html=1;fontFamily=Times New Roman;fontColor=#FFFFFF;" edge="1" parent="1" source="21" target="23">
                    <mxGeometry relative="1" as="geometry"/>
                </mxCell>
                <mxCell id="31" style="edgeStyle=none;html=1;entryX=0;entryY=0.5;entryDx=0;entryDy=0;fontFamily=Times New Roman;fontColor=#FFFFFF;" edge="1" parent="1" source="21" target="30">
                    <mxGeometry relative="1" as="geometry">
                        <Array as="points">
                            <mxPoint x="240" y="640"/>
                            <mxPoint x="240" y="910"/>
                        </Array>
                    </mxGeometry>
                </mxCell>
                <mxCell id="21" value="цикл &lt;br&gt;for&lt;br&gt;(int i = 0; i &amp;lt; inputArray; i++)" style="shape=hexagon;perimeter=hexagonPerimeter2;whiteSpace=wrap;html=1;fixedSize=1;rounded=0;" vertex="1" parent="1">
                    <mxGeometry x="335" y="610" width="170" height="60" as="geometry"/>
                </mxCell>
                <mxCell id="26" value="" style="edgeStyle=none;html=1;fontFamily=Times New Roman;fontColor=#FFFFFF;" edge="1" parent="1" source="23" target="25">
                    <mxGeometry relative="1" as="geometry"/>
                </mxCell>
                <mxCell id="27" value="yes" style="edgeLabel;html=1;align=center;verticalAlign=middle;resizable=0;points=[];fontFamily=Times New Roman;fontColor=#FFFFFF;" vertex="1" connectable="0" parent="26">
                    <mxGeometry x="0.1968" relative="1" as="geometry">
                        <mxPoint as="offset"/>
                    </mxGeometry>
                </mxCell>
                <mxCell id="28" style="edgeStyle=none;html=1;entryX=1;entryY=0.5;entryDx=0;entryDy=0;fontFamily=Times New Roman;fontColor=#FFFFFF;" edge="1" parent="1" source="23" target="21">
                    <mxGeometry relative="1" as="geometry">
                        <Array as="points">
                            <mxPoint x="560" y="730"/>
                            <mxPoint x="560" y="640"/>
                        </Array>
                    </mxGeometry>
                </mxCell>
                <mxCell id="29" value="no" style="edgeLabel;html=1;align=center;verticalAlign=middle;resizable=0;points=[];fontFamily=Times New Roman;fontColor=#FFFFFF;" vertex="1" connectable="0" parent="28">
                    <mxGeometry x="-0.1282" y="2" relative="1" as="geometry">
                        <mxPoint as="offset"/>
                    </mxGeometry>
                </mxCell>
                <mxCell id="23" value="if(inputArray[i].Length &amp;lt;=3" style="rhombus;whiteSpace=wrap;html=1;rounded=0;" vertex="1" parent="1">
                    <mxGeometry x="330" y="690" width="180" height="80" as="geometry"/>
                </mxCell>
                <mxCell id="25" value="outArr[index] = inputArray[i]&lt;br&gt;index++" style="whiteSpace=wrap;html=1;rounded=0;" vertex="1" parent="1">
                    <mxGeometry x="330" y="797" width="180" height="60" as="geometry"/>
                </mxCell>
                <mxCell id="37" value="" style="edgeStyle=none;html=1;fontFamily=Times New Roman;fontColor=#FFFFFF;" edge="1" parent="1" source="30" target="36">
                    <mxGeometry relative="1" as="geometry"/>
                </mxCell>
                <mxCell id="30" value="метод печати массива в консоль&lt;br&gt;PrintArray" style="rounded=0;whiteSpace=wrap;html=1;fontFamily=Times New Roman;fontColor=#FFFFFF;" vertex="1" parent="1">
                    <mxGeometry x="330" y="880" width="180" height="60" as="geometry"/>
                </mxCell>
                <mxCell id="34" value="Конец" style="ellipse;whiteSpace=wrap;html=1;fontFamily=Times New Roman;fontColor=#FFFFFF;" vertex="1" parent="1">
                    <mxGeometry x="360" y="1050" width="120" height="40" as="geometry"/>
                </mxCell>
                <mxCell id="38" value="" style="edgeStyle=none;html=1;fontFamily=Times New Roman;fontColor=#FFFFFF;" edge="1" parent="1" source="36" target="34">
                    <mxGeometry relative="1" as="geometry"/>
                </mxCell>
                <mxCell id="36" value="Завершение работы&lt;br&gt;Ожидание нажатия на кнопку" style="whiteSpace=wrap;html=1;fontFamily=Times New Roman;fontColor=#FFFFFF;rounded=0;" vertex="1" parent="1">
                    <mxGeometry x="360" y="960" width="120" height="60" as="geometry"/>
                </mxCell>
            </root>
        </mxGraphModel>
    </diagram>
</mxfile>